<?xml version="1.0" encoding="UTF-8"?>
<svg width="24px" height="24px" viewBox="0 0 24 24" version="1.1" xmlns="http://www.w3.org/2000/svg" xmlns:xlink="http://www.w3.org/1999/xlink">
    <!-- Generator: Sketch 45.2 (43514) - http://www.bohemiancoding.com/sketch -->
    <title>home_icon_002</title>
    <desc>Created with Sketch.</desc>
    <defs></defs>
    <g id="Page-1" stroke="none" stroke-width="1" fill="none" fill-rule="evenodd">
        <g id="home_icon_002" stroke="#e6a732">
            <polygon id="Stroke-7180" points="5.5 5.5 0.5 5.5 0.5 23.5 5.5 23.5"></polygon>
            <polygon id="Stroke-7181" points="23.5 0.5 5.5 0.5 5.5 5.5 23.5 5.5"></polygon>
            <polygon id="Stroke-7182" points="0.5 0.5 5.5 0.5 5.5 5.5 0.5 5.5"></polygon>
            <polygon id="Stroke-7183" points="18 23.5 5.5 23.5 5.5 5.5 23.5 5.5 23.5 18"></polygon>
            <polyline id="Stroke-7184" points="17.5 23.5 17.5 17.5 23.5 17.5"></polyline>
            <path d="M8.5,5.5 L8.5,2" id="Stroke-7185" stroke-linejoin="round"></path>
            <path d="M12.5,5.5 L12.5,3" id="Stroke-7186" stroke-linejoin="round"></path>
            <path d="M16.5,5.5 L16.5,3" id="Stroke-7187" stroke-linejoin="round"></path>
            <path d="M20.5,5.5 L20.5,2" id="Stroke-7188" stroke-linejoin="round"></path>
            <path d="M5.5,20.5 L2,20.5" id="Stroke-7189" stroke-linejoin="round"></path>
            <path d="M5.5,16.5 L3,16.5" id="Stroke-7190" stroke-linejoin="round"></path>
            <path d="M5.5,12.5 L3,12.5" id="Stroke-7191" stroke-linejoin="round"></path>
            <path d="M5.5,8.5 L2,8.5" id="Stroke-7192" stroke-linejoin="round"></path>
        </g>
    </g>
</svg>