<?xml version="1.0" encoding="iso-8859-1"?>
<!-- Generator: Adobe Illustrator 19.0.0, SVG Export Plug-In . SVG Version: 6.00 Build 0)  -->
<svg version="1.1" id="Capa_1" xmlns="http://www.w3.org/2000/svg" xmlns:xlink="http://www.w3.org/1999/xlink" x="0px" y="0px"
	 viewBox="0 0 512 512" style="enable-background:new 0 0 512 512;" xml:space="preserve">
<g>
	<g>
		<path fill="#b1bec9" d="M76.8,426.667H59.733H51.2c0-4.719-3.823-8.533-8.533-8.533s-8.533,3.814-8.533,8.533h-25.6
			c-4.71,0-8.533,3.814-8.533,8.533v68.267C0,508.186,3.823,512,8.533,512H76.8c4.71,0,8.533-3.814,8.533-8.533v-34.133v-17.067
			V435.2C85.333,430.481,81.51,426.667,76.8,426.667z"/>
	</g>
</g>
<g>
	<g>
		<path fill="#b1bec9" d="M503.467,0H435.2c-4.71,0-8.533,3.814-8.533,8.533V51.2v25.6c0,4.719,3.823,8.533,8.533,8.533h8.533H460.8h42.667
			c4.71,0,8.533-3.814,8.533-8.533V8.533C512,3.814,508.177,0,503.467,0z"/>
	</g>
</g>
<g>
	<g>
		<path fill="#b1bec9" d="M503.467,426.667h-25.6c0-4.719-3.823-8.533-8.533-8.533s-8.533,3.814-8.533,8.533h-8.533H435.2
			c-4.71,0-8.533,3.814-8.533,8.533v17.067v17.067v34.133c0,4.719,3.823,8.533,8.533,8.533h68.267c4.71,0,8.533-3.814,8.533-8.533
			V435.2C512,430.481,508.177,426.667,503.467,426.667z"/>
	</g>
</g>
<g>
	<g>
		<path fill="#b1bec9" d="M128,460.8h-17.067c-4.71,0-8.533,3.814-8.533,8.533s3.823,8.533,8.533,8.533H128c4.71,0,8.533-3.814,8.533-8.533
			S132.71,460.8,128,460.8z"/>
	</g>
</g>
<g>
	<g>
		<path fill="#b1bec9" d="M42.667,153.6c-4.71,0-8.533,3.814-8.533,8.533V179.2c0,4.719,3.823,8.533,8.533,8.533s8.533-3.814,8.533-8.533v-17.067
			C51.2,157.414,47.377,153.6,42.667,153.6z"/>
	</g>
</g>
<g>
	<g>
		<path fill="#b1bec9" d="M85.333,34.133v-25.6C85.333,3.814,81.51,0,76.8,0H8.533C3.823,0,0,3.814,0,8.533V76.8c0,4.719,3.823,8.533,8.533,8.533
			H51.2h17.067H76.8c4.71,0,8.533-3.814,8.533-8.533V51.2c4.71,0,8.533-3.814,8.533-8.533S90.044,34.133,85.333,34.133z"/>
	</g>
</g>
<g>
	<g>
		<path fill="#b1bec9" d="M187.733,460.8h-25.6c-4.71,0-8.533,3.814-8.533,8.533s3.823,8.533,8.533,8.533h25.6c4.71,0,8.533-3.814,8.533-8.533
			S192.444,460.8,187.733,460.8z"/>
	</g>
</g>
<g>
	<g>
		<path fill="#b1bec9" d="M145.067,34.133h-25.6c-4.71,0-8.533,3.814-8.533,8.533s3.823,8.533,8.533,8.533h25.6c4.71,0,8.533-3.814,8.533-8.533
			S149.777,34.133,145.067,34.133z"/>
	</g>
</g>
<g>
	<g>
		<path fill="#b1bec9" d="M196.267,34.133H179.2c-4.71,0-8.533,3.814-8.533,8.533S174.49,51.2,179.2,51.2h17.067c4.71,0,8.533-3.814,8.533-8.533
			S200.977,34.133,196.267,34.133z"/>
	</g>
</g>
<g>
	<g>
		<path fill="#b1bec9" d="M42.667,204.8c-4.71,0-8.533,3.814-8.533,8.533V230.4c0,4.719,3.823,8.533,8.533,8.533s8.533-3.814,8.533-8.533v-17.067
			C51.2,208.614,47.377,204.8,42.667,204.8z"/>
	</g>
</g>
<g>
	<g>
		<path fill="#b1bec9" d="M42.667,256c-4.71,0-8.533,3.814-8.533,8.533v25.6c0,4.719,3.823,8.533,8.533,8.533s8.533-3.814,8.533-8.533v-25.6
			C51.2,259.814,47.377,256,42.667,256z"/>
	</g>
</g>
<g>
	<g>
		<path fill="#b1bec9" d="M42.667,366.933c-4.71,0-8.533,3.814-8.533,8.533v17.067c0,4.719,3.823,8.533,8.533,8.533s8.533-3.814,8.533-8.533
			v-17.067C51.2,370.748,47.377,366.933,42.667,366.933z"/>
	</g>
</g>
<g>
	<g>
		<path fill="#b1bec9" d="M42.667,93.867c-4.71,0-8.533,3.814-8.533,8.533V128c0,4.719,3.823,8.533,8.533,8.533S51.2,132.719,51.2,128v-25.6
			C51.2,97.681,47.377,93.867,42.667,93.867z"/>
	</g>
</g>
<g>
	<g>
		<path fill="#b1bec9" d="M42.667,315.733c-4.71,0-8.533,3.814-8.533,8.533v17.067c0,4.719,3.823,8.533,8.533,8.533s8.533-3.814,8.533-8.533
			v-17.067C51.2,319.548,47.377,315.733,42.667,315.733z"/>
	</g>
</g>
<g>
	<g>
		<path fill="#b1bec9" d="M290.133,460.8h-17.067c-4.71,0-8.533,3.814-8.533,8.533s3.823,8.533,8.533,8.533h17.067c4.71,0,8.533-3.814,8.533-8.533
			S294.844,460.8,290.133,460.8z"/>
	</g>
</g>
<g>
	<g>
		<path fill="#b1bec9" d="M469.333,204.8c-4.71,0-8.533,3.814-8.533,8.533V230.4c0,4.719,3.823,8.533,8.533,8.533s8.533-3.814,8.533-8.533v-17.067
			C477.867,208.614,474.044,204.8,469.333,204.8z"/>
	</g>
</g>
<g>
	<g>
		<path fill="#b1bec9" d="M469.333,93.867c-4.71,0-8.533,3.814-8.533,8.533V128c0,4.719,3.823,8.533,8.533,8.533s8.533-3.814,8.533-8.533v-25.6
			C477.867,97.681,474.044,93.867,469.333,93.867z"/>
	</g>
</g>
<g>
	<g>
		<path fill="#b1bec9" d="M469.333,256c-4.71,0-8.533,3.814-8.533,8.533v25.6c0,4.719,3.823,8.533,8.533,8.533s8.533-3.814,8.533-8.533v-25.6
			C477.867,259.814,474.044,256,469.333,256z"/>
	</g>
</g>
<g>
	<g>
		<path fill="#b1bec9" d="M469.333,153.6c-4.71,0-8.533,3.814-8.533,8.533V179.2c0,4.719,3.823,8.533,8.533,8.533s8.533-3.814,8.533-8.533v-17.067
			C477.867,157.414,474.044,153.6,469.333,153.6z"/>
	</g>
</g>
<g>
	<g>
		<path fill="#b1bec9" d="M469.333,366.933c-4.71,0-8.533,3.814-8.533,8.533v17.067c0,4.719,3.823,8.533,8.533,8.533s8.533-3.814,8.533-8.533
			v-17.067C477.867,370.748,474.044,366.933,469.333,366.933z"/>
	</g>
</g>
<g>
	<g>
		<path fill="#b1bec9" d="M469.333,315.733c-4.71,0-8.533,3.814-8.533,8.533v17.067c0,4.719,3.823,8.533,8.533,8.533s8.533-3.814,8.533-8.533
			v-17.067C477.867,319.548,474.044,315.733,469.333,315.733z"/>
	</g>
</g>
<g>
	<g>
		<path fill="#b1bec9" d="M409.6,34.133h-17.067c-4.71,0-8.533,3.814-8.533,8.533s3.823,8.533,8.533,8.533H409.6c4.71,0,8.533-3.814,8.533-8.533
			S414.31,34.133,409.6,34.133z"/>
	</g>
</g>
<g>
	<g>
		<path fill="#b1bec9" d="M307.2,34.133h-25.6c-4.71,0-8.533,3.814-8.533,8.533S276.89,51.2,281.6,51.2h25.6c4.71,0,8.533-3.814,8.533-8.533
			S311.91,34.133,307.2,34.133z"/>
	</g>
</g>
<g>
	<g>
		<path fill="#b1bec9" d="M247.467,34.133H230.4c-4.71,0-8.533,3.814-8.533,8.533S225.69,51.2,230.4,51.2h17.067c4.71,0,8.533-3.814,8.533-8.533
			S252.177,34.133,247.467,34.133z"/>
	</g>
</g>
<g>
	<g>
		<path fill="#b1bec9" d="M349.867,460.8h-25.6c-4.71,0-8.533,3.814-8.533,8.533s3.823,8.533,8.533,8.533h25.6c4.71,0,8.533-3.814,8.533-8.533
			S354.577,460.8,349.867,460.8z"/>
	</g>
</g>
<g>
	<g>
		<path fill="#b1bec9" d="M358.4,34.133h-17.067c-4.71,0-8.533,3.814-8.533,8.533s3.823,8.533,8.533,8.533H358.4c4.71,0,8.533-3.814,8.533-8.533
			S363.11,34.133,358.4,34.133z"/>
	</g>
</g>
<g>
	<g>
		<path fill="#b1bec9" d="M238.933,460.8h-17.067c-4.71,0-8.533,3.814-8.533,8.533s3.823,8.533,8.533,8.533h17.067c4.71,0,8.533-3.814,8.533-8.533
			S243.644,460.8,238.933,460.8z"/>
	</g>
</g>
<g>
	<g>
		<path fill="#b1bec9" d="M401.067,460.8H384c-4.71,0-8.533,3.814-8.533,8.533s3.823,8.533,8.533,8.533h17.067c4.71,0,8.533-3.814,8.533-8.533
			S405.777,460.8,401.067,460.8z"/>
	</g>
</g>
<g>
</g>
<g>
</g>
<g>
</g>
<g>
</g>
<g>
</g>
<g>
</g>
<g>
</g>
<g>
</g>
<g>
</g>
<g>
</g>
<g>
</g>
<g>
</g>
<g>
</g>
<g>
</g>
<g>
</g>
</svg>
