<svg height="512pt" viewBox="0 0 512 512" width="512pt" xmlns="http://www.w3.org/2000/svg"><path d="m256 0c-140.699219 0-256 115.300781-256 256s115.300781 256 256 256 256-115.300781 256-256-115.300781-256-256-256zm159.550781 415.550781c-42.851562 42.851563-99.515625 66.449219-159.550781 66.449219s-116.699219-23.597656-159.550781-66.449219c-42.851563-42.851562-66.449219-99.515625-66.449219-159.550781s23.597656-116.699219 66.449219-159.550781c42.851562-42.851563 99.515625-66.449219 159.550781-66.449219s116.699219 23.597656 159.550781 66.449219c42.851563 42.851562 66.449219 99.515625 66.449219 159.550781s-23.597656 116.699219-66.449219 159.550781zm0 0"/><path d="m188.5 256c0 33.601562 21.898438 61.800781 52.5 71.699219v-143.398438c-30.601562 9.898438-52.5 38.097657-52.5 71.699219zm0 0"/><path d="m394.335938 117.664062c-37.183594-37.183593-86.3125-57.664062-138.335938-57.664062s-101.152344 20.480469-138.335938 57.664062c-37.183593 37.183594-57.664062 86.3125-57.664062 138.335938s20.480469 101.152344 57.664062 138.335938c37.183594 37.183593 86.3125 57.664062 138.335938 57.664062s101.152344-20.480469 138.335938-57.664062c37.183593-37.183594 57.664062-86.3125 57.664062-138.335938s-20.480469-101.152344-57.664062-138.335938zm-65.738282 175.835938 25.800782 15c-17.398438 30.300781-48.597657 49.800781-83.398438 51.898438v30.601562h-30v-32.398438c-47.101562-10.203124-82.5-52.5-82.5-102.601562s35.398438-92.398438 82.5-102.601562v-32.398438h30v30.597656c34.800781 2.101563 66 21.601563 83.402344 51.902344l-25.800782 15c-12.300781-21-33.902343-34.800781-57.601562-36.902344v148.800782c23.699219-2.097657 45.300781-15.898438 57.597656-36.898438zm0 0"/></svg>