<?xml version="1.0" encoding="UTF-8"?>
<svg width="22px" height="26px" viewBox="0 0 22 26" version="1.1" xmlns="http://www.w3.org/2000/svg" xmlns:xlink="http://www.w3.org/1999/xlink">
    <!-- Generator: Sketch 45.2 (43514) - http://www.bohemiancoding.com/sketch -->
    <title>home_icon_003</title>
    <desc>Created with Sketch.</desc>
    <defs></defs>
    <g id="Page-1" stroke="none" stroke-width="1" fill="none" fill-rule="evenodd">
        <g id="home_icon_003" transform="translate(1.000000, 1.000000)">
            <polygon id="Stroke-5432" stroke="#00B7DD" points="20 24 0 24 0 0.0948616601 20 0.0948616601"></polygon>
            <polygon id="Stroke-5433" stroke="#00B7DD" points="11.7647059 24 8.23529412 24 8.23529412 19.4466403 11.7647059 19.4466403"></polygon>
            <polygon id="Stroke-5440" fill="#00B7DD" points="12.2352941 4.3715415 8.23529412 4.3715415 8.23529412 3.3715415 12.2352941 3.3715415"></polygon>
            <polygon id="Stroke-5441" fill="#00B7DD" points="18.1176471 4.3715415 14.1176471 4.3715415 14.1176471 3.3715415 18.1176471 3.3715415"></polygon>
            <polygon id="Stroke-5442" fill="#00B7DD" points="6.35294118 4.3715415 2.35294118 4.3715415 2.35294118 3.3715415 6.35294118 3.3715415"></polygon>
            <polygon id="Stroke-5440-Copy" fill="#00B7DD" points="12.2352941 8.3715415 8.23529412 8.3715415 8.23529412 7.3715415 12.2352941 7.3715415"></polygon>
            <polygon id="Stroke-5441-Copy" fill="#00B7DD" points="18.1176471 8.3715415 14.1176471 8.3715415 14.1176471 7.3715415 18.1176471 7.3715415"></polygon>
            <polygon id="Stroke-5442-Copy" fill="#00B7DD" points="6.35294118 8.3715415 2.35294118 8.3715415 2.35294118 7.3715415 6.35294118 7.3715415"></polygon>
            <polygon id="Stroke-5440-Copy-2" fill="#00B7DD" points="12.2352941 12.3715415 8.23529412 12.3715415 8.23529412 11.3715415 12.2352941 11.3715415"></polygon>
            <polygon id="Stroke-5441-Copy-2" fill="#00B7DD" points="18.1176471 12.3715415 14.1176471 12.3715415 14.1176471 11.3715415 18.1176471 11.3715415"></polygon>
            <polygon id="Stroke-5442-Copy-2" fill="#00B7DD" points="6.35294118 12.3715415 2.35294118 12.3715415 2.35294118 11.3715415 6.35294118 11.3715415"></polygon>
            <polygon id="Stroke-5440-Copy-3" fill="#00B7DD" points="12.2352941 16.3715415 8.23529412 16.3715415 8.23529412 15.3715415 12.2352941 15.3715415"></polygon>
            <polygon id="Stroke-5441-Copy-3" fill="#00B7DD" points="18.1176471 16.3715415 14.1176471 16.3715415 14.1176471 15.3715415 18.1176471 15.3715415"></polygon>
            <polygon id="Stroke-5442-Copy-3" fill="#00B7DD" points="6.35294118 16.3715415 2.35294118 16.3715415 2.35294118 15.3715415 6.35294118 15.3715415"></polygon>
        </g>
    </g>
</svg>