<?xml version="1.0" encoding="UTF-8"?>
<svg width="26px" height="26px" viewBox="0 0 26 26" version="1.1" xmlns="http://www.w3.org/2000/svg" xmlns:xlink="http://www.w3.org/1999/xlink">
    <!-- Generator: Sketch 45.2 (43514) - http://www.bohemiancoding.com/sketch -->
    <title>home_icon_001</title>
    <desc>Created with Sketch.</desc>
    <defs></defs>
    <g id="Page-1" stroke="none" stroke-width="1" fill="none" fill-rule="evenodd">
        <g id="home_icon_001" transform="translate(1.000000, 1.000000)" stroke="#00B7DD">
            <path d="M14.5,13.5 L13.5,13.5" id="Stroke-6103" stroke-linecap="round" stroke-linejoin="round"></path>
            <path d="M8.5,13.5 L7.5,13.5" id="Stroke-6103-Copy" stroke-linecap="round" stroke-linejoin="round"></path>
            <path d="M5.5,13.5 L4.5,13.5" id="Stroke-6103-Copy-2" stroke-linecap="round" stroke-linejoin="round"></path>
            <path d="M2.5,13.5 L1.5,13.5" id="Stroke-6103-Copy-3" stroke-linecap="round" stroke-linejoin="round"></path>
            <path d="M17.5,13.5 L16.5,13.5" id="Stroke-6104" stroke-linecap="round" stroke-linejoin="round"></path>
            <path d="M20.5,13.5 L19.5,13.5" id="Stroke-6105" stroke-linecap="round" stroke-linejoin="round"></path>
            <path d="M23.5,13.5 L22.5,13.5" id="Stroke-6106" stroke-linecap="round" stroke-linejoin="round"></path>
            <polyline id="Stroke-6108" stroke-linecap="round" stroke-linejoin="round" points="11.5 13.5 10.5 13.5 10.5 12.5"></polyline>
            <path d="M10.5,10.5 L10.5,9.5" id="Stroke-6109" stroke-linecap="round" stroke-linejoin="round"></path>
            <path d="M15.5,16.5 L15.5,15.5" id="Stroke-6109-Copy" stroke-linecap="round" stroke-linejoin="round"></path>
            <path d="M15.5,19.5 L15.5,18.5" id="Stroke-6109-Copy-2" stroke-linecap="round" stroke-linejoin="round"></path>
            <path d="M15.5,22.5 L15.5,21.5" id="Stroke-6109-Copy-3" stroke-linecap="round" stroke-linejoin="round"></path>
            <path d="M10.5,7.5 L10.5,6.5" id="Stroke-6110" stroke-linecap="round" stroke-linejoin="round"></path>
            <path d="M10.5,4.5 L10.5,3.5" id="Stroke-6111" stroke-linecap="round" stroke-linejoin="round"></path>
            <path d="M10.5,1.5 L10.5,0.5" id="Stroke-6112" stroke-linecap="round" stroke-linejoin="round"></path>
            <polygon id="Stroke-6113" points="24 0 0 0 0 24 24 24"></polygon>
        </g>
    </g>
</svg>